<?xml version="1.0" encoding="UTF-8"?>
<!DOCTYPE svg PUBLIC "-//W3C//DTD SVG 1.1//EN" "http://www.w3.org/Graphics/SVG/1.1/DTD/svg11.dtd">
<svg xmlns="http://www.w3.org/2000/svg" version="1.1" width="40px" height="40px" style="shape-rendering:geometricPrecision; text-rendering:geometricPrecision; image-rendering:optimizeQuality; fill-rule:evenodd; clip-rule:evenodd" xmlns:xlink="http://www.w3.org/1999/xlink">
<g><path style="opacity:0.958" fill="#0bc426" d="M 2.5,-0.5 C 10.5,-0.5 18.5,-0.5 26.5,-0.5C 21.4574,1.63098 16.4574,3.96431 11.5,6.5C 8.85834,4.8266 6.85834,5.3266 5.5,8C 5.63874,9.30105 6.30541,10.1344 7.5,10.5C 7.16667,11.1667 6.83333,11.8333 6.5,12.5C 5.92694,21.1087 4.92694,29.7754 3.5,38.5C 1.56954,38.2294 0.236209,37.2294 -0.5,35.5C -0.5,24.8333 -0.5,14.1667 -0.5,3.5C 0.488369,2.20498 1.48837,0.871651 2.5,-0.5 Z"/></g>
<g><path style="opacity:0.977" fill="#0bbe26" d="M 26.5,-0.5 C 29.8333,-0.5 33.1667,-0.5 36.5,-0.5C 37.1667,0.5 37.8333,1.5 38.5,2.5C 32.625,3.21873 26.9583,4.71873 21.5,7C 18.6387,8.83244 16.1387,10.9991 14,13.5C 12.6412,12.635 11.4745,11.635 10.5,10.5C 11.2341,9.29208 11.5674,7.95875 11.5,6.5C 16.4574,3.96431 21.4574,1.63098 26.5,-0.5 Z"/></g>
<g><path style="opacity:1" fill="#e6f9e8" d="M 11.5,6.5 C 11.5674,7.95875 11.2341,9.29208 10.5,10.5C 9.5,10.5 8.5,10.5 7.5,10.5C 6.30541,10.1344 5.63874,9.30105 5.5,8C 6.85834,5.3266 8.85834,4.8266 11.5,6.5 Z"/></g>
<g><path style="opacity:1" fill="#1ab629" d="M 38.5,2.5 C 38.8333,2.5 39.1667,2.5 39.5,2.5C 39.5,8.83333 39.5,15.1667 39.5,21.5C 38.1667,21.5 36.8333,21.5 35.5,21.5C 36.0545,17.9878 35.3878,14.9878 33.5,12.5C 32.1266,12.3433 30.7932,12.51 29.5,13C 26.3333,16.1667 23.1667,19.3333 20,22.5C 16.8333,19.3333 13.6667,16.1667 10.5,13C 9.20677,12.51 7.87344,12.3433 6.5,12.5C 6.83333,11.8333 7.16667,11.1667 7.5,10.5C 8.5,10.5 9.5,10.5 10.5,10.5C 11.4745,11.635 12.6412,12.635 14,13.5C 16.1387,10.9991 18.6387,8.83244 21.5,7C 26.9583,4.71873 32.625,3.21873 38.5,2.5 Z"/></g>
<g><path style="opacity:1" fill="#f6fcf6" d="M 30.5,5.5 C 33.9103,5.38377 35.2436,7.05044 34.5,10.5C 30.065,11.0776 28.7317,9.41095 30.5,5.5 Z"/></g>
<g><path style="opacity:1" fill="#f6fcf7" d="M 6.5,12.5 C 7.87344,12.3433 9.20677,12.51 10.5,13C 13.6667,16.1667 16.8333,19.3333 20,22.5C 23.1667,19.3333 26.3333,16.1667 29.5,13C 30.7932,12.51 32.1266,12.3433 33.5,12.5C 33.5,19.5 33.5,26.5 33.5,33.5C 32.5,33.5 31.5,33.5 30.5,33.5C 30.8282,28.1254 30.4948,22.7921 29.5,17.5C 28.8933,17.6236 28.56,17.9569 28.5,18.5C 27.1667,20.1667 25.8333,21.8333 24.5,23.5C 22.7261,24.0169 21.0595,24.3502 19.5,24.5C 15.8089,23.6465 13.1422,21.4799 11.5,18C 10.8333,17.3333 10.1667,17.3333 9.5,18C 10.5159,19.6768 11.5159,21.3435 12.5,23C 10.7386,26.2254 10.0719,29.7254 10.5,33.5C 9.16667,33.5 7.83333,33.5 6.5,33.5C 6.5,26.5 6.5,19.5 6.5,12.5 Z"/></g>
<g><path style="opacity:1" fill="#9fdda8" d="M 28.5,18.5 C 28.56,17.9569 28.8933,17.6236 29.5,17.5C 30.4948,22.7921 30.8282,28.1254 30.5,33.5C 29.8333,28.5 29.1667,23.5 28.5,18.5 Z"/></g>
<g><path style="opacity:0.997" fill="#28b330" d="M 6.5,12.5 C 6.5,19.5 6.5,26.5 6.5,33.5C 7.83333,33.5 9.16667,33.5 10.5,33.5C 10.0719,29.7254 10.7386,26.2254 12.5,23C 11.5159,21.3435 10.5159,19.6768 9.5,18C 10.1667,17.3333 10.8333,17.3333 11.5,18C 13.1422,21.4799 15.8089,23.6465 19.5,24.5C 20.0577,25.7899 21.0577,26.6232 22.5,27C 20.0111,30.7863 18.6778,34.953 18.5,39.5C 13.5,39.5 8.5,39.5 3.5,39.5C 3.5,39.1667 3.5,38.8333 3.5,38.5C 4.92694,29.7754 5.92694,21.1087 6.5,12.5 Z"/></g>
<g><path style="opacity:0.996" fill="#08a71e" d="M 26.5,39.5 C 23.8333,39.5 21.1667,39.5 18.5,39.5C 18.6778,34.953 20.0111,30.7863 22.5,27C 21.0577,26.6232 20.0577,25.7899 19.5,24.5C 21.0595,24.3502 22.7261,24.0169 24.5,23.5C 24.4346,23.9382 24.6012,24.2716 25,24.5C 26,23.5 27,22.5 28,21.5C 28.624,27.5934 28.124,33.5934 26.5,39.5 Z"/></g>
<g><path style="opacity:0.861" fill="#21a226" d="M 33.5,12.5 C 35.3878,14.9878 36.0545,17.9878 35.5,21.5C 36.8333,21.5 38.1667,21.5 39.5,21.5C 39.5,26.5 39.5,31.5 39.5,36.5C 38.1667,37.1667 37.1667,38.1667 36.5,39.5C 33.1667,39.5 29.8333,39.5 26.5,39.5C 28.124,33.5934 28.624,27.5934 28,21.5C 27,22.5 26,23.5 25,24.5C 24.6012,24.2716 24.4346,23.9382 24.5,23.5C 25.8333,21.8333 27.1667,20.1667 28.5,18.5C 29.1667,23.5 29.8333,28.5 30.5,33.5C 31.5,33.5 32.5,33.5 33.5,33.5C 33.5,26.5 33.5,19.5 33.5,12.5 Z"/></g>
</svg>
